<svg id="Layer_1" data-name="Layer 1" xmlns="http://www.w3.org/2000/svg" viewBox="0 0 50 48.75"><defs><style>.cls-1{fill:#00005b;}.cls-2{fill:#99f;}</style></defs><title>ae</title><rect class="cls-1" width="50" height="48.75" rx="8.85"/><path class="cls-2" d="M20.09,29.17H12.34l-1.58,4.9a.4.4,0,0,1-.4.31H6.43c-.22,0-.3-.13-.23-.37l6.71-19.24c.07-.21.13-.4.2-.66a6.89,6.89,0,0,0,.13-1.36.21.21,0,0,1,.18-.23h5.39c.16,0,.25.05.27.17L26.69,34c.07.22,0,.34-.2.34H22.13a.32.32,0,0,1-.33-.24ZM13.55,25h5.3c-.14-.45-.3-1-.47-1.51l-.57-1.79c-.21-.64-.41-1.28-.61-1.92s-.38-1.25-.55-1.84-.32-1.14-.45-1.63h0c-.19.91-.42,1.8-.7,2.69s-.63,2-1,3.08S13.86,24.14,13.55,25Z"/><path class="cls-2" d="M39,27.26H32.43a4.65,4.65,0,0,0,.64,1.84,3.4,3.4,0,0,0,1.52,1.26,6.43,6.43,0,0,0,2.67.53,13,13,0,0,0,2.16-.24,7.85,7.85,0,0,0,1.86-.49c.12-.09.17,0,.17.17v3.19a.45.45,0,0,1-.05.25.54.54,0,0,1-.15.15,8.75,8.75,0,0,1-2.08.62,14.58,14.58,0,0,1-3,.25,9.57,9.57,0,0,1-4-.74,7,7,0,0,1-2.62-2,7.63,7.63,0,0,1-1.44-2.73A10.73,10.73,0,0,1,28.25,23a8.81,8.81,0,0,1,1.56-2.85,7.59,7.59,0,0,1,2.52-2,7.89,7.89,0,0,1,3.49-.65,7.6,7.6,0,0,1,3.23.63,5.73,5.73,0,0,1,2.2,1.66,7.57,7.57,0,0,1,1.24,2.37,8.45,8.45,0,0,1,.41,2.55c0,.49,0,.94-.06,1.34s-.06.69-.08.87a.31.31,0,0,1-.3.27c-.14,0-.36,0-.69.05s-.73.06-1.21.07S39.57,27.26,39,27.26ZM32.43,24.2h4.39c.54,0,.94,0,1.19,0A1.05,1.05,0,0,0,38.5,24v-.2a2.89,2.89,0,0,0-.13-.77,2.74,2.74,0,0,0-2.72-1.91,2.92,2.92,0,0,0-2.77,1.58A4.71,4.71,0,0,0,32.43,24.2Z"/></svg>