<svg id="Layer_1" data-name="Layer 1" xmlns="http://www.w3.org/2000/svg" viewBox="0 0 50 48.75"><defs><style>.cls-1{fill:#300;}.cls-2{fill:#ff9a00;}</style></defs><title>ai</title><path class="cls-1" d="M8.85,0h32.3A8.85,8.85,0,0,1,50,8.85V39.9a8.85,8.85,0,0,1-8.85,8.85H8.85A8.85,8.85,0,0,1,0,39.9v-31A8.85,8.85,0,0,1,8.85,0Z"/><path class="cls-2" d="M24.23,29.25H16.48l-1.58,4.9a.38.38,0,0,1-.4.29H10.58c-.23,0-.29-.13-.23-.38l6.71-19.31c.07-.21.13-.44.21-.69a7.53,7.53,0,0,0,.13-1.35.2.2,0,0,1,.16-.23H23c.17,0,.25.06.27.17l7.6,21.45c.07.23,0,.34-.2.34H26.27a.32.32,0,0,1-.33-.23ZM17.69,25H23c-.13-.44-.29-1-.48-1.5s-.38-1.17-.56-1.79-.4-1.27-.61-1.92-.39-1.25-.56-1.85-.31-1.13-.46-1.63h0A26,26,0,0,1,19.56,19c-.31,1-.62,2-1,3.08s-.6,2-.91,2.92Z"/><path class="cls-2" d="M35.38,16a2.59,2.59,0,0,1-1.86-.73,2.7,2.7,0,0,1-.71-1.91,2.47,2.47,0,0,1,.75-1.86,2.67,2.67,0,0,1,1.86-.73,2.48,2.48,0,0,1,1.89.73A2.64,2.64,0,0,1,38,13.4a2.64,2.64,0,0,1-.73,1.91A2.46,2.46,0,0,1,35.38,16ZM33,34.13V18.08c0-.2.09-.29.27-.29h4.13c.19,0,.27.11.27.29V34.13c0,.22-.08.33-.27.33H33.35A.29.29,0,0,1,33,34.13Z"/></svg>