<svg id="Layer_1" data-name="Layer 1" xmlns="http://www.w3.org/2000/svg" viewBox="0 0 119.52 115"><defs><style>.cls-1{fill:#e8891d;}</style></defs><title>Artboard 7</title><path class="cls-1" d="M109.56,0H10A10,10,0,0,0,0,10V77.69a10,10,0,0,0,10,10H51.17L48.34,100.3h-8.7a7,7,0,0,0-7,7v2.08H24.94a2.83,2.83,0,1,0,0,5.65H94.59a2.83,2.83,0,1,0,0-5.65H86.86v-2.08a7,7,0,0,0-7-7h-8.7L68.36,87.65h41.2a10,10,0,0,0,10-10V10A10,10,0,0,0,109.56,0ZM79.89,106a1.33,1.33,0,0,1,1.33,1.32v2.08H38.32v-2.08A1.32,1.32,0,0,1,39.64,106ZM54.12,100.3,57,87.65h5.63l2.83,12.65Zm59.76-22.61A4.32,4.32,0,0,1,109.56,82H10a4.32,4.32,0,0,1-4.31-4.31V75H113.88Zm0-7.67H5.65V10A4.32,4.32,0,0,1,10,5.65h99.6A4.32,4.32,0,0,1,113.88,10Zm-7.69-28.48a8,8,0,0,0-15-.34H91c-4.35,0-10.3,2.61-15.61,14-5.31-11.42-11.27-14-15.6-14s-10.3,2.61-15.61,14c-5.31-11.42-11.26-14-15.6-14-5.09,0-12.39,3.59-18.28,20.73A2.84,2.84,0,0,0,12,65.53a2.91,2.91,0,0,0,.92.15,2.84,2.84,0,0,0,2.67-1.92c3.63-10.59,8.46-16.92,12.93-16.92s9.3,6.33,12.93,16.92a2.82,2.82,0,0,0,5.34,0c3.64-10.59,8.48-16.92,12.94-16.92s9.29,6.33,12.93,16.92a2.82,2.82,0,0,0,5.34,0C81.67,53.17,86.51,46.84,91,46.84h.18a8,8,0,0,0,5.65,4.94,8.35,8.35,0,0,0,1.43.19h.37a8,8,0,0,0,8-8A8.46,8.46,0,0,0,106.19,41.54Zm-4.93,5.11a3.75,3.75,0,0,1-2.65,1.11,3.42,3.42,0,0,1-.79-.09,3.73,3.73,0,1,1,3.44-1ZM69.37,20.1,53,10.63a2.83,2.83,0,0,0-4.24,2.45V32a2.84,2.84,0,0,0,2.82,2.82A2.88,2.88,0,0,0,53,34.45L69.37,25a2.81,2.81,0,0,0,0-4.89Zm-15,7V18l7.93,4.57Z"/></svg>