<svg id="Layer_1" data-name="Layer 1" xmlns="http://www.w3.org/2000/svg" viewBox="0 0 138.98 115"><defs><style>.cls-1{fill:#e8891d;}</style></defs><title>Artboard 5</title><path class="cls-1" d="M121.34,19.94h15.35a2.3,2.3,0,0,0,2.29-2.3V2.29A2.3,2.3,0,0,0,136.69,0H121.34A2.3,2.3,0,0,0,119,2.29V7.68H79.46V2.29A2.3,2.3,0,0,0,77.16,0H61.81a2.3,2.3,0,0,0-2.29,2.29V7.68H19.94V2.29A2.3,2.3,0,0,0,17.65,0H2.3A2.3,2.3,0,0,0,0,2.29V17.64a2.3,2.3,0,0,0,2.3,2.3H17.65a2.3,2.3,0,0,0,2.29-2.3V12.26H46.13A62,62,0,0,0,8.48,59.52H2.3A2.29,2.29,0,0,0,0,61.81V77.16a2.29,2.29,0,0,0,2.3,2.29H17.65a2.29,2.29,0,0,0,2.29-2.29V61.81a2.29,2.29,0,0,0-2.29-2.29H13.13A57.39,57.39,0,0,1,59.52,13.13v4.51a2.3,2.3,0,0,0,2.29,2.3H77.16a2.3,2.3,0,0,0,2.3-2.3V13.13a57.36,57.36,0,0,1,46.38,46.39h-4.5a2.29,2.29,0,0,0-2.3,2.29V77.16a2.29,2.29,0,0,0,2.3,2.29h15.35A2.29,2.29,0,0,0,139,77.16V61.81a2.29,2.29,0,0,0-2.29-2.29h-6.2A62,62,0,0,0,92.84,12.26H119v5.38A2.3,2.3,0,0,0,121.34,19.94Zm2.28-15.36h10.77V15.35H123.62ZM15.35,15.35H4.58V4.58H15.35Zm0,48.75V74.87H4.58V64.1ZM74.88,15.35H64.11V4.58H74.88ZM134.39,64.1V74.87H123.62V64.1ZM89.81,64,71.52,31.36a1.6,1.6,0,0,0-.21-.32,0,0,0,0,0,0,0l0,0a2.39,2.39,0,0,0-.22-.23,2.13,2.13,0,0,0-.22-.18l-.14-.09-.25-.13-.35-.13-.32-.06-.27,0-.28,0a1.86,1.86,0,0,0-.56.15l-.2.08-.24.15a1.77,1.77,0,0,0-.17.12,2.42,2.42,0,0,0-.32.32l-.12.17-.14.22L49.16,64a2.32,2.32,0,0,0,.54,2.89C55.78,72,59.12,77.76,59.77,84.43H55.9a5.77,5.77,0,0,0-5.76,5.76v1.15A5.75,5.75,0,0,0,55,97v15.7a2.29,2.29,0,1,0,4.58,0V97.09H79.4v15.62a2.3,2.3,0,0,0,4.59,0V97a5.73,5.73,0,0,0,4.84-5.67V90.19a5.76,5.76,0,0,0-5.75-5.76H79.2c.66-6.67,4-12.44,10.08-17.51A2.3,2.3,0,0,0,89.81,64ZM69.49,59.7a2.4,2.4,0,1,1-2.39,2.39A2.4,2.4,0,0,1,69.49,59.7ZM83.08,89a1.18,1.18,0,0,1,1.17,1.18v1.15a1.14,1.14,0,0,1-.41.88,1.09,1.09,0,0,1-.76.29H55.9a1.09,1.09,0,0,1-.76-.29,1.15,1.15,0,0,1-.42-.88V90.19A1.19,1.19,0,0,1,55.9,89ZM74.6,84.43H64.37c-.63-7.48-4.08-14.11-10.3-19.78L67.2,41.2V55.51a7,7,0,1,0,4.58,0V41.2L84.91,64.65C78.68,70.32,75.23,77,74.6,84.43Z"/></svg>