<svg id="Layer_1" data-name="Layer 1" xmlns="http://www.w3.org/2000/svg" viewBox="0 0 35 49.99"><defs><style>.cls-1{fill:#e44d26;}.cls-2{fill:#f16529;}.cls-3{fill:#ebebeb;}.cls-4{fill:#fff;}</style></defs><title>html5</title><path d="M3.26,0H5.48V2.23h2V0H9.74V6.74H7.52V4.49h-2V6.74H3.26m9.42-4.49h-2V0h6.14V2.25h-2V6.74H12.68M17.84,0h2.32l1.43,2.37L23,0h2.32V6.74H23.12V3.4L21.57,5.82,20,3.4V6.74H17.84M26.44,0h2.22V4.51h3.15V6.74H26.44"/><path class="cls-1" d="M3.18,46,0,9.82H35L31.82,46,17.47,50"/><path class="cls-2" d="M17.5,46.92V12.79H31.81L29.08,43.64"/><path class="cls-3" d="M6.5,17.21h11v4.44H11.31l.4,4.54H17.5v4.42H7.7m.19,2.23h4.4l.31,3.54,4.9,1.33v4.63l-9-2.54"/><path class="cls-4" d="M28.46,17.21h-11v4.44H28.05m-.39,4.54H17.48v4.43h5.4l-.51,5.76-4.89,1.33v4.61l9-2.52"/></svg>