<svg xmlns="http://www.w3.org/2000/svg" viewBox="0 0 139.43 106.25"><defs><style>.cls-1{fill:#05a3a4;}.cls-2{fill:#e8891d;}</style></defs><title>icon</title><g id="Layer_2" data-name="Layer 2"><path class="cls-1" d="M69.71,83.25l7.55,11.5-7.55,11.5L55.86,85.14l-6.31-9.62-6.3-9.61-35-53.29L0,0H15.09l8.28,12.62,23,35,4.46,6.79L57.1,64h0ZM124.34,0l-8.28,12.62L88.64,54.41l7.54,11.5,35-53.29L139.43,0Z"/><polygon class="cls-2" points="27.7 0 35.98 12.62 56.4 43.73 76.02 73.64 76.02 73.64 83.57 85.14 89.87 75.53 82.33 64.03 69.71 44.8 67.57 41.52 63.41 35.18 48.6 12.62 90.83 12.62 88.64 15.96 82.33 25.57 76.02 35.18 82.33 44.8 88.64 35.18 94.95 25.57 101.25 15.96 103.44 12.62 111.72 0 27.7 0"/></g></svg>