<svg id="Layer_1" data-name="Layer 1" xmlns="http://www.w3.org/2000/svg" viewBox="0 0 50 48.75"><defs><style>.cls-1{fill:#49021f;}.cls-2{fill:#f36;}</style></defs><title>id</title><rect class="cls-1" width="50" height="48.75" rx="8.85"/><path class="cls-2" d="M18.16,12.75V34.12c0,.22-.1.34-.3.33H13.8q-.27,0-.27-.33V12.75c0-.18.1-.26.3-.26h4.06a.24.24,0,0,1,.27.2Z"/><path class="cls-2" d="M30.17,34.79a10.45,10.45,0,0,1-4.48-.94A7.11,7.11,0,0,1,22.55,31a9.1,9.1,0,0,1-1.14-4.75,8.77,8.77,0,0,1,1.14-4.39,8.36,8.36,0,0,1,3.32-3.22,10.69,10.69,0,0,1,5.27-1.21,3.56,3.56,0,0,1,.43,0c.18,0,.4,0,.64.05V10.91c0-.16.07-.24.2-.24h4.23a.18.18,0,0,1,.2.15V30.7c0,.38,0,.79,0,1.24s.06.85.08,1.21a.34.34,0,0,1-.2.33,16.64,16.64,0,0,1-3.38,1A18.37,18.37,0,0,1,30.17,34.79Zm2-4.16V21.47a4.86,4.86,0,0,0-.55-.1q-.35,0-.69,0a5.19,5.19,0,0,0-2.35.54,4.32,4.32,0,0,0-2.45,4.19,6.07,6.07,0,0,0,.36,2.15,4,4,0,0,0,.94,1.47,3.53,3.53,0,0,0,1.4.84,5.68,5.68,0,0,0,1.73.27c.31,0,.61,0,.87,0A3.72,3.72,0,0,0,32.21,30.63Z"/></svg>