<svg id="Layer_1" data-name="Layer 1" xmlns="http://www.w3.org/2000/svg" viewBox="0 0 147.44 115"><defs><style>.cls-1{fill:#fff;}</style></defs><title>link</title><path class="cls-1" d="M77.53,76.85a5.73,5.73,0,0,1,0-8.11L79,67.29A22,22,0,0,0,79.67,37c-.23-.25-.45-.49-.69-.73a21.69,21.69,0,0,0-9.27-5.52A22,22,0,0,0,48,36.26L18.28,65.94c-8.67,8.68-9,23.16-.15,31.69a22,22,0,0,0,30.77-.25l1.45-1.46a5.73,5.73,0,0,1,8.11,0h0a5.72,5.72,0,0,1,0,8.1l-.92.92c-13.22,13.22-35.19,13.56-48.18.13a33.44,33.44,0,0,1,.41-46.82L39.86,28.16A33.41,33.41,0,0,1,78.49,22a32.85,32.85,0,0,1,8.6,6.2c.24.24.48.48.69.72a33.44,33.44,0,0,1-.69,46.51l-1.46,1.46a5.72,5.72,0,0,1-8.1,0Zm60-67.49a33.44,33.44,0,0,0-46.82.41l-1.46,1.46a5.74,5.74,0,0,0,0,8.1h0a5.73,5.73,0,0,0,8.11,0l1.46-1.46a22,22,0,0,1,30.76-.26c8.82,8.53,8.52,23-.15,31.7L99.72,79a21.93,21.93,0,0,1-31,0c-.24-.23-.46-.47-.69-.72A22,22,0,0,1,68.7,48l1.46-1.46a5.74,5.74,0,0,0,0-8.1h0a5.73,5.73,0,0,0-8.11,0l-1.46,1.46a33.42,33.42,0,0,0-.68,46.5c.21.25.45.49.68.73a33.09,33.09,0,0,0,8.6,6.2,33.43,33.43,0,0,0,38.64-6.2l29.55-29.55C150.59,44.32,150.94,22.35,137.5,9.36Z"/></svg>