<svg id="Layer_1" data-name="Layer 1" xmlns="http://www.w3.org/2000/svg" viewBox="0 0 121.68 115"><defs><style>.cls-1{fill:#e8891d;}</style></defs><title>Artboard 6</title><path class="cls-1" d="M113.11,35.3a10.74,10.74,0,0,0-10.5-8.57H94.25a10.69,10.69,0,0,0-6,1.83V12.39A12.41,12.41,0,0,0,75.88,0H45.81a12.41,12.41,0,0,0-12.4,12.39V28.56a10.69,10.69,0,0,0-6-1.83H19.07A10.74,10.74,0,0,0,8.57,35.3,10.75,10.75,0,0,0,0,45.81v8.35a10.74,10.74,0,0,0,8.57,10.5,10.73,10.73,0,0,0,10.5,8.57h8.36a10.62,10.62,0,0,0,6-1.83v41.23A2.37,2.37,0,0,0,35.78,115H85.9a2.37,2.37,0,0,0,2.37-2.37V71.4a10.62,10.62,0,0,0,6,1.83h8.36a10.73,10.73,0,0,0,10.47-8.44,9.9,9.9,0,0,0,8.6-9.8V45.81A10.74,10.74,0,0,0,113.11,35.3ZM88.27,60.14V39.82h20.32V60.14ZM13.09,39.82H33.41V60.14H13.09Zm25.06,0H83.53V60.14H38.15Zm45.38-4.74H38.15V14.76H83.53ZM38.15,64.88H83.53V85.2H38.15Zm56.1-33.41h8.36a6,6,0,0,1,5.5,3.61H88.76A6,6,0,0,1,94.25,31.47ZM45.81,4.74H75.88A7.67,7.67,0,0,1,83.16,10H38.52A7.68,7.68,0,0,1,45.81,4.74ZM19.07,31.47h8.36a6,6,0,0,1,5.5,3.61H13.58A6,6,0,0,1,19.07,31.47ZM4.74,54.16V45.81a6,6,0,0,1,3.61-5.5V59.66A6,6,0,0,1,4.74,54.16ZM27.43,68.5H19.07a6,6,0,0,1-5.49-3.62H32.93A6,6,0,0,1,27.43,68.5Zm56.1,41.76H38.15V89.94H83.53ZM102.61,68.5H94.25a6,6,0,0,1-5.49-3.62h19.35A6,6,0,0,1,102.61,68.5ZM117,55a5.16,5.16,0,0,1-3.62,4.92V40.31a6,6,0,0,1,3.62,5.5Z"/></svg>