<svg id="Layer_1" data-name="Layer 1" xmlns="http://www.w3.org/2000/svg" viewBox="0 0 50 48.75"><defs><style>.cls-1{fill:#001e36;}.cls-2{fill:#31a8ff;}</style></defs><title>ps</title><rect class="cls-1" width="50" height="48.75" rx="8.85"/><path class="cls-2" d="M11.26,34.19V12.75c0-.15.07-.23.2-.23l1.18,0,1.59,0,1.81,0h1.9a12.47,12.47,0,0,1,4.29.64A7.31,7.31,0,0,1,25,14.77a6.63,6.63,0,0,1,1.53,2.36,8,8,0,0,1,.47,2.7,7.44,7.44,0,0,1-1.25,4.43,7,7,0,0,1-3.35,2.53,13.26,13.26,0,0,1-4.7.7h-1l-.9,0v6.69a.26.26,0,0,1-.23.3H11.49C11.34,34.45,11.26,34.37,11.26,34.19Zm4.53-17.65v7a7.77,7.77,0,0,0,.8,0H17.7a7.54,7.54,0,0,0,2.4-.39,3.6,3.6,0,0,0,1.71-1.1,3.21,3.21,0,0,0,.65-2.15A3.38,3.38,0,0,0,22,18.09a3.09,3.09,0,0,0-1.46-1.19,6,6,0,0,0-2.45-.42H16.64c-.41,0-.7,0-.85.05Z"/><path class="cls-2" d="M40,22.26a7.85,7.85,0,0,0-2-.7,10.22,10.22,0,0,0-2.33-.27,4.44,4.44,0,0,0-1.26.15,1.14,1.14,0,0,0-.65.42,1.06,1.06,0,0,0-.17.57.82.82,0,0,0,.2.54,2.22,2.22,0,0,0,.7.55,13.27,13.27,0,0,0,1.48.69,15.14,15.14,0,0,1,3.2,1.52,5.06,5.06,0,0,1,1.65,1.73,4.57,4.57,0,0,1,.48,2.15,4.87,4.87,0,0,1-.8,2.77,5.38,5.38,0,0,1-2.33,1.86,9.54,9.54,0,0,1-3.78.67,13.44,13.44,0,0,1-2.83-.27A8.8,8.8,0,0,1,29.43,34a.46.46,0,0,1-.24-.4V29.94a.21.21,0,0,1,.09-.18.15.15,0,0,1,.18,0,9.26,9.26,0,0,0,2.58,1,10.76,10.76,0,0,0,2.45.32,3.78,3.78,0,0,0,1.73-.3,1,1,0,0,0,.55-.88,1.07,1.07,0,0,0-.5-.83,8.11,8.11,0,0,0-2.05-1,11.82,11.82,0,0,1-3-1.51,5,5,0,0,1-1.58-1.76,4.62,4.62,0,0,1-.49-2.13,4.83,4.83,0,0,1,.71-2.51,5,5,0,0,1,2.18-1.91,8.08,8.08,0,0,1,3.69-.74,15.91,15.91,0,0,1,2.58.18,6.68,6.68,0,0,1,1.8.49.28.28,0,0,1,.2.18,1.07,1.07,0,0,1,0,.25v3.39a.2.2,0,0,1-.1.2A.3.3,0,0,1,40,22.26Z"/></svg>