<svg id="Layer_1" data-name="Layer 1" xmlns="http://www.w3.org/2000/svg" viewBox="0 0 168.56 115"><defs><style>.cls-1{fill:#e8891d;}</style></defs><title>Artboard 9</title><path class="cls-1" d="M109.56,0H10A10,10,0,0,0,0,10V77.69a10,10,0,0,0,10,10H51.17L48.34,100.3h-8.7a7,7,0,0,0-7,7v2.08H24.94a2.83,2.83,0,1,0,0,5.65H78.7v-5.65H38.32v-2.08A1.32,1.32,0,0,1,39.64,106H78.7V100.3H71.19L68.36,87.65H78.7V82H10a4.32,4.32,0,0,1-4.31-4.31V65.22H16.07a2.49,2.49,0,0,0,0-5H5.65V10A4.32,4.32,0,0,1,10,5.65h99.6A4.32,4.32,0,0,1,113.88,10v7.43h5.64V10A10,10,0,0,0,109.56,0ZM57,87.65h5.63l2.83,12.65H54.12ZM78.7,60.24v5H34a2.5,2.5,0,0,1-2.49-2.49A2.44,2.44,0,0,1,32.23,61,2.5,2.5,0,0,1,34,60.24ZM27.52,62.73a2.49,2.49,0,1,1-5,0A2.44,2.44,0,0,1,23.27,61a2.49,2.49,0,0,1,3.52,0A2.44,2.44,0,0,1,27.52,62.73ZM15.55,39V52A2.8,2.8,0,0,1,10,52V39a2.8,2.8,0,0,1,2.8-2.79A2.8,2.8,0,0,1,15.55,39ZM14.73,25.7a2.77,2.77,0,0,0-2-.82A2.8,2.8,0,0,0,10,27.67v2.26a2.8,2.8,0,0,0,5.59,0V27.67A2.77,2.77,0,0,0,14.73,25.7ZM67.5,73.56a2.83,2.83,0,0,1-.82,2,2.69,2.69,0,0,1-.89.6,3,3,0,0,1-1.08.21H54.82a2.93,2.93,0,0,1-1.08-.21,2.79,2.79,0,0,1,1.08-5.36h9.89A2.79,2.79,0,0,1,67.5,73.56Zm74.93-48.2H96.61a10,10,0,0,0-10,10V105c0,.21,0,.42,0,.63a9.82,9.82,0,0,0,.18,1.34v0a9.69,9.69,0,0,0,.79,2.31,10,10,0,0,0,7.65,5.56h0a9.5,9.5,0,0,0,1.31.09h33.16v-5.65H96.61A4.32,4.32,0,0,1,92.3,105V97.59h37.47V92H92.3V43.66h54.45v9h5.64V35.32A10,10,0,0,0,142.43,25.36ZM146.75,38H92.3V35.32A4.32,4.32,0,0,1,96.61,31h45.82a4.32,4.32,0,0,1,4.32,4.31Zm16.83,22.66H141.22a5,5,0,0,0-5,5V110a5,5,0,0,0,5,5h22.36a5,5,0,0,0,5-5V65.65A5,5,0,0,0,163.58,60.67Zm-.67,48.68h-21v-5.58h21Zm0-11.22h-21V77.54h21Zm0-26.24h-21V66.31h21ZM102.2,67V80a2.81,2.81,0,0,1-2.79,2.79A2.78,2.78,0,0,1,97.52,82a2.75,2.75,0,0,1-.91-2V67a2.75,2.75,0,0,1,.67-1.81,2.8,2.8,0,0,1,2.13-1,2.75,2.75,0,0,1,2,.82l.15.17A2.8,2.8,0,0,1,102.2,67Zm-.82-13.35a2.75,2.75,0,0,0-2-.82,2.79,2.79,0,0,0-2.8,2.79v2.27a2.78,2.78,0,0,0,1.26,2.32,2.76,2.76,0,0,0,3.08,0,2.8,2.8,0,0,0,1.25-2.32V55.65A2.79,2.79,0,0,0,101.38,53.68Zm25.88,49.8a2.83,2.83,0,0,1-.82,2,2.74,2.74,0,0,1-2,.81h-9.89a2.79,2.79,0,1,1,0-5.57h9.89A2.78,2.78,0,0,1,127.26,103.48Z"/></svg>