<svg id="Layer_1" data-name="Layer 1" xmlns="http://www.w3.org/2000/svg" viewBox="0 0 119.58 132.23"><defs><style>.cls-1{fill:#e8891d;}</style></defs><title>Artboard 8</title><path class="cls-1" d="M109.62,17.17H107.7A11,11,0,0,0,105,2.29,11.33,11.33,0,0,0,98.15,0a10.72,10.72,0,0,0-8.63,4.26L87.34,7.45q-2.67,3.9-5.33,7.79c-.43.64-.87,1.28-1.32,1.93H10a10,10,0,0,0-10,10V94.9a10,10,0,0,0,10,10H51.19l-2.83,12.65h-8.7a7,7,0,0,0-7,7v2.08H25a2.83,2.83,0,1,0,0,5.65H94.64a2.83,2.83,0,1,0,0-5.65H86.91V124.5a7,7,0,0,0-7-7H71.22l-2.83-12.65h41.23a10,10,0,0,0,10-10V27.14A10,10,0,0,0,109.62,17.17ZM83.68,22.82l3.87-5.65L94.1,7.56a5.11,5.11,0,0,1,4.05-1.91,5.74,5.74,0,0,1,5.62,4.79,5,5,0,0,1-.88,3.75l-2.47,3-4.69,5.65L85,35.74l-6.68-5.05ZM70.49,42.13l4.63-6.76,6.27,4.71-5.24,6.31Zm3,18.45c-1.74,2-3.68,2.76-7.14,2.76-1.45,0-3-.13-4.65-.27l-.19,0h-.48a16.58,16.58,0,0,0-7.41,1.73A34.47,34.47,0,0,1,53.13,57c.82-6.75,3.69-10,9.73-10.95L74.8,55C75.15,58.49,74,60,73.51,60.58Zm6.42,62.59a1.34,1.34,0,0,1,1.33,1.33v2.08H38.34V124.5a1.33,1.33,0,0,1,1.32-1.33Zm-25.78-5.65L57,104.87h5.63l2.83,12.65Zm59.79-40.08H34a2.49,2.49,0,0,0,0,5h79.93V94.9a4.32,4.32,0,0,1-4.32,4.31H10A4.32,4.32,0,0,1,5.65,94.9V82.42H16.07a2.48,2.48,0,0,0,2.5-2.49,2.5,2.5,0,0,0-2.5-2.49H5.65V27.14A4.32,4.32,0,0,1,10,22.82H76.83c-.49.71-1,1.43-1.45,2.13l-6.12,9c-1.26,1.85-2.54,3.68-3.79,5.54-.65,1-1.82.75-2.86.88a21.82,21.82,0,0,0-4,.9,15.53,15.53,0,0,0-6.8,4.32,18.66,18.66,0,0,0-4.34,10.92,41.82,41.82,0,0,0,1.64,13.85c.71,1.33,1.52,2.07,2.47,2.07a2.79,2.79,0,0,0,1.77-.77,12,12,0,0,1,7.68-2.93h.2c1.71.14,3.43.29,5.12.29,4.14,0,8.11-.88,11.46-4.77a11.53,11.53,0,0,0,2.56-6,16,16,0,0,0,0-3.59,18.68,18.68,0,0,0-.28-2c-.14-.76-.68-1.42-.15-2.06l.6-.71,1.94-2.34,6-7.28Q92.26,35.82,96,31.4l6.7-8.08.42-.5h6.55a4.32,4.32,0,0,1,4.32,4.32ZM27.53,79.93a2.48,2.48,0,1,1-.72-1.76A2.51,2.51,0,0,1,27.53,79.93Z"/></svg>